<svg width="203" height="295" viewBox="0 0 203 295" fill="none" xmlns="http://www.w3.org/2000/svg">
<path fill-rule="evenodd" clip-rule="evenodd" d="M32.0841 0L23.5015 4.31593L33.2185 23.6389L28.8552 25.8331L46.1384 60.2021L37 64.7975L60.578 111.684C52.1716 119.709 45.6351 129.927 41.9564 141.817L30.819 177.815L0.0947266 247.045L43.0667 188.047L98.5162 205.202L88.0284 271.933L112.114 209.409L173.262 228.327L180.347 294.973L187.183 230.67L199.585 190.585C211.096 153.378 190.265 113.883 153.058 102.371L130.171 95.2901C118.263 91.6062 106.122 91.2345 94.738 93.6519L71.503 47.447L63.1986 51.623L45.9155 17.254L41.8011 19.323L32.0841 0ZM73.3849 168.526C73.1737 174.045 68.5286 178.348 63.0098 178.137C57.491 177.925 53.1883 173.28 53.3995 167.762C53.6107 162.243 58.2558 157.94 63.7746 158.151C69.2934 158.362 73.5961 163.007 73.3849 168.526ZM98.0751 190.859C103.594 191.07 108.248 186.544 108.469 180.749C108.691 174.954 104.397 170.085 98.8781 169.874C93.3593 169.663 88.7057 174.189 88.4839 179.984C88.2622 185.779 92.5563 190.648 98.0751 190.859ZM143.496 192.398C143.285 197.916 138.863 202.228 133.62 202.027C128.377 201.826 124.298 197.19 124.51 191.671C124.721 186.152 129.142 181.841 134.385 182.042C139.628 182.242 143.707 186.879 143.496 192.398ZM169.171 213.937C174.69 214.149 179.335 209.846 179.546 204.327C179.758 198.808 175.455 194.163 169.936 193.952C164.417 193.741 159.772 198.044 159.561 203.562C159.35 209.081 163.653 213.726 169.171 213.937Z" fill="#294B6D" fill-opacity="0.15"/>
</svg>