<svg width="1812" height="1828" viewBox="0 0 1812 1828" fill="none" xmlns="http://www.w3.org/2000/svg">
<circle cx="9.5" cy="76.9485" r="9.5" fill="#294B6D" fill-opacity="0.15"/>
<circle cx="902.5" cy="72.9485" r="13.5" fill="#294B6D" fill-opacity="0.15"/>
<circle cx="1448.5" cy="1824.5" r="3.5" fill="#C4C4C4"/>
<path d="M181.132 90.4363L201.293 121.481L237.049 111.901L213.753 140.668L233.914 171.714L199.356 158.448L176.06 187.216L177.997 150.249L143.439 136.983L179.195 127.403L181.132 90.4363Z" fill="#294B6D" fill-opacity="0.15"/>
<path d="M1615.91 38.3408L1608.23 65.8729L1624.04 89.6833L1595.48 90.884L1577.72 113.283L1567.76 86.4928L1540.97 76.5257L1563.37 58.7678L1564.57 30.2089L1588.38 46.0241L1615.91 38.3408Z" fill="#294B6D" fill-opacity="0.15"/>
<path fill-rule="evenodd" clip-rule="evenodd" d="M464.761 92.8288L478.188 17.4485L527.505 76.0165L552.311 168.591L561.859 166.032L571.009 200.18L609.028 280.08L561.133 210.53L541.453 215.804L557.949 305.272L527.501 219.542L500.997 226.644L497.144 312.059L487.307 226.035L477.3 188.69L489.566 185.403L464.761 92.8288Z" fill="#294B6D" fill-opacity="0.15"/>
<path fill-rule="evenodd" clip-rule="evenodd" d="M1115.08 0L1106.5 4.31593L1116.22 23.6389L1111.86 25.8331L1129.14 60.2021L1120 64.7975L1143.58 111.684C1135.17 119.709 1128.64 129.927 1124.96 141.817L1113.82 177.815L1083.09 247.045L1126.07 188.047L1181.52 205.202L1171.03 271.933L1195.11 209.409L1256.26 228.327L1263.35 294.973L1270.18 230.67L1282.58 190.585C1294.1 153.378 1273.27 113.883 1236.06 102.371L1213.17 95.2901C1201.26 91.6062 1189.12 91.2345 1177.74 93.6519L1154.5 47.447L1146.2 51.623L1128.92 17.254L1124.8 19.323L1115.08 0ZM1156.38 168.526C1156.17 174.045 1151.53 178.348 1146.01 178.137C1140.49 177.925 1136.19 173.28 1136.4 167.762C1136.61 162.243 1141.26 157.94 1146.77 158.151C1152.29 158.362 1156.6 163.007 1156.38 168.526ZM1181.08 190.859C1186.59 191.07 1191.25 186.544 1191.47 180.749C1191.69 174.954 1187.4 170.085 1181.88 169.874C1176.36 169.663 1171.71 174.189 1171.48 179.984C1171.26 185.779 1175.56 190.648 1181.08 190.859ZM1226.5 192.398C1226.28 197.916 1221.86 202.228 1216.62 202.027C1211.38 201.826 1207.3 197.19 1207.51 191.671C1207.72 186.152 1212.14 181.841 1217.39 182.042C1222.63 182.242 1226.71 186.879 1226.5 192.398ZM1252.17 213.937C1257.69 214.149 1262.34 209.846 1262.55 204.327C1262.76 198.808 1258.45 194.163 1252.94 193.952C1247.42 193.741 1242.77 198.044 1242.56 203.562C1242.35 209.081 1246.65 213.726 1252.17 213.937Z" fill="#294B6D" fill-opacity="0.15"/>
</svg>